<svg width="734" height="174" viewBox="0 0 734 174" fill="none" xmlns="http://www.w3.org/2000/svg">
<path d="M97.409 138.67C89.309 147.87 80.209 156.07 70.209 163.27C52.909 151.07 38.109 135.67 26.609 117.87C20.209 107.97 14.809 97.3701 10.609 86.0701C8.10898 79.4701 6.00898 72.5701 4.40898 65.5701C1.70898 53.5701 0.208984 41.0701 0.208984 28.2701C0.208984 26.9701 0.208984 25.6701 0.208984 24.4701C5.40898 21.2701 10.809 18.4701 16.409 15.8701C17.909 28.2701 20.809 40.2701 24.909 51.6701C27.209 58.2701 30.009 64.5701 33.109 70.6701C38.409 81.0701 44.809 90.7701 52.109 99.7701C64.709 115.37 80.009 128.57 97.409 138.67Z" fill="url(#paint0_linear_469_678)"/>
<path d="M169.371 58.9433C167.971 66.4433 166.071 73.8433 163.771 81.0433C154.071 79.2433 143.971 78.3433 133.771 78.3433C132.871 78.3433 131.971 78.3433 131.071 78.3433C109.371 78.7433 88.6715 83.2433 69.7715 91.2433C62.3715 82.4433 55.9715 72.6433 50.7715 62.2433C70.2715 54.0433 91.7715 49.5433 114.271 49.5433C121.871 49.5433 129.371 50.0433 136.771 51.0433C147.971 52.5433 158.971 55.2433 169.371 58.9433Z" fill="url(#paint1_linear_469_678)"/>
<path d="M171.907 29.9725C171.907 34.3725 171.707 38.7725 171.407 43.1725C160.707 38.5725 149.507 35.1725 137.807 32.8725C127.707 30.9725 117.307 29.9725 106.707 29.9725C84.1072 29.9725 62.5072 34.5725 42.9072 42.7725C36.7072 45.3725 30.7072 48.3725 24.9072 51.6725C20.8072 40.2725 17.9072 28.2725 16.4072 15.8725C22.8072 12.8725 29.4072 10.3725 36.2072 8.17249C51.8072 3.27249 68.4072 0.672485 85.6072 0.672485C103.307 0.672485 120.307 3.47249 136.207 8.57248C148.807 12.6725 160.807 18.1725 171.907 24.9725C171.907 26.5725 171.907 28.2725 171.907 29.9725Z" fill="url(#paint2_linear_469_678)"/>
<path d="M163.772 81.0433C157.172 101.043 146.672 119.343 133.272 134.943C128.972 140.043 124.272 144.843 119.372 149.343C109.272 158.543 97.9719 166.543 85.8719 173.043C80.4719 170.043 75.1719 166.743 70.1719 163.243C80.1719 156.143 89.2719 147.843 97.3719 138.643C101.472 133.943 105.372 129.043 108.972 123.943C118.572 110.143 126.072 94.7433 131.072 78.3433C131.972 78.3433 132.872 78.3433 133.772 78.3433C143.972 78.2433 154.072 79.2433 163.772 81.0433Z" fill="url(#paint3_linear_469_678)"/>
<path d="M216.009 65.7739V52.7091H303.826V65.7739H267.056V121.266H252.779V65.7739H216.009Z" fill="black"/>
<path d="M315.005 114.397C312.85 112.376 311.234 109.952 310.021 107.258C308.809 104.564 308.271 101.601 308.271 98.5033V75.3368C308.271 72.239 308.809 69.2758 310.021 66.7167C311.234 64.023 312.85 61.5986 315.005 59.4435C317.16 57.2885 319.584 55.5376 322.278 54.4601C324.972 53.2479 327.8 52.7091 330.898 52.7091H373.325C376.423 52.7091 379.386 53.2479 381.945 54.4601C384.639 55.6723 387.063 57.2885 389.218 59.4435C391.373 61.5986 393.124 64.023 394.202 66.7167C395.414 69.4105 395.953 72.239 395.953 75.3368V98.5033C395.953 101.601 395.414 104.564 394.202 107.258C392.99 109.952 391.373 112.376 389.218 114.397C388.141 115.339 387.063 116.282 385.851 117.09C384.639 117.898 383.427 118.572 382.08 119.245C380.733 119.784 379.386 120.323 377.905 120.592C376.423 120.862 374.941 121.131 373.325 121.131H330.898C329.282 121.131 327.8 120.996 326.319 120.592C324.837 120.323 323.49 119.784 322.143 119.245C320.797 118.707 319.584 117.898 318.372 117.09C317.16 116.417 316.082 115.474 315.005 114.397ZM322.548 99.7155C322.548 100.793 322.817 101.871 323.221 102.813C323.76 103.756 324.298 104.699 325.107 105.507C325.915 106.315 326.723 106.854 327.8 107.393C328.743 107.931 329.821 108.066 330.898 108.066H373.325C374.403 108.066 375.48 107.797 376.423 107.393C377.366 106.854 378.309 106.315 379.117 105.507C379.925 104.699 380.464 103.891 381.002 102.813C381.541 101.871 381.676 100.793 381.676 99.7155V74.1246C381.676 72.9124 381.406 71.8349 381.002 70.8921C380.598 69.8146 379.925 69.0064 379.251 68.1983C378.443 67.3902 377.635 66.8514 376.558 66.4474C375.48 66.0433 374.403 65.7739 373.325 65.7739H330.898C329.686 65.7739 328.609 66.0433 327.666 66.4474C326.588 66.8514 325.78 67.5249 324.972 68.1983C324.164 69.0064 323.625 69.8146 323.221 70.8921C322.817 71.9696 322.548 73.0471 322.548 74.1246V99.7155Z" fill="black"/>
<path d="M415.214 52.5746H476.363C478.653 52.5746 480.808 52.844 482.693 53.3827C484.579 53.9215 486.33 54.7296 487.811 55.6724C489.293 56.6153 490.64 57.8275 491.852 59.0396C492.93 60.3865 493.872 61.7334 494.681 63.3497C495.489 64.8313 496.028 66.4475 496.432 68.1985C496.836 69.9494 496.97 71.5657 496.97 73.3167C496.97 75.0676 496.836 76.8186 496.432 78.5695C496.028 80.3205 495.489 81.9367 494.681 83.4183C493.872 84.8999 492.93 86.3815 491.852 87.7283C490.775 89.0752 489.428 90.1527 487.811 91.0956C486.33 92.0384 484.579 92.8465 482.693 93.3853C480.808 93.924 478.653 94.1934 476.363 94.1934H421.679V121.131H407.402V60.3865C407.402 59.1743 407.537 58.0968 407.941 57.154C408.345 56.2112 408.884 55.403 409.557 54.7296C410.231 54.0562 411.039 53.5174 411.982 53.1133C412.925 52.844 414.002 52.5746 415.214 52.5746ZM476.094 81.1286C477.171 81.1286 478.114 80.8592 478.922 80.4552C479.73 80.0511 480.404 79.3776 480.942 78.7042C481.481 78.0308 481.885 77.2226 482.155 76.2798C482.424 75.337 482.559 74.3942 482.559 73.4513C482.559 72.5085 482.424 71.5657 482.155 70.6229C481.885 69.6801 481.481 68.8719 480.942 68.1985C480.404 67.525 479.73 66.8516 478.922 66.4475C478.114 66.0435 477.171 65.7741 476.094 65.7741H421.679V81.1286H476.094V81.1286Z" fill="black"/>
<path d="M506.397 52.5746H520.674V121.131H506.397V52.5746Z" fill="black"/>
<path d="M528.217 121.266L570.913 57.0193C573.068 53.652 575.358 52.0358 577.378 52.0358C579.399 52.0358 581.688 53.652 583.843 57.0193L626.54 121.266H609.165L577.378 73.1819L545.592 121.266H528.217Z" fill="black"/>
<path d="M635.564 60.5211C635.564 59.3089 635.699 58.2313 636.103 57.2885C636.507 56.3457 637.046 55.5376 637.719 54.8641C638.393 54.1907 639.201 53.6519 640.144 53.2479C641.087 52.8438 642.164 52.7091 643.376 52.7091H649.168C649.707 52.7091 650.246 52.8438 650.784 52.9785C651.323 53.1132 651.862 53.3826 652.401 53.6519C652.939 53.9213 653.343 54.1907 653.747 54.5948C654.151 54.9988 654.556 55.4029 654.825 55.807L684.591 100.793L714.357 55.807C714.627 55.4029 715.031 54.9988 715.435 54.5948C715.839 54.1907 716.378 53.9213 716.782 53.6519C717.32 53.3826 717.859 53.1132 718.398 52.9785C718.937 52.8438 719.476 52.7091 720.014 52.7091H725.806C727.018 52.7091 728.096 52.8438 729.038 53.2479C729.981 53.6519 730.789 54.1907 731.463 54.8641C732.136 55.5376 732.675 56.3457 733.079 57.2885C733.483 58.2313 733.618 59.3089 733.618 60.5211V121.266H719.341V74.2593L691.056 116.821C690.652 117.36 690.248 117.898 689.844 118.437C689.44 118.976 688.901 119.515 688.362 120.053C687.824 120.592 687.15 120.996 686.612 121.266C685.938 121.535 685.265 121.804 684.591 121.804C683.918 121.804 683.244 121.67 682.571 121.266C681.897 120.996 681.359 120.592 680.82 120.053C680.281 119.515 679.742 118.976 679.338 118.437C678.934 117.898 678.53 117.36 678.126 116.821L649.841 74.2593V121.266H635.564V60.5211Z" fill="black"/>
<defs>
<linearGradient id="paint0_linear_469_678" x1="13.5748" y1="24.4371" x2="74.4498" y2="157.612" gradientUnits="userSpaceOnUse">
<stop stop-color="#57A4F7"/>
<stop offset="1" stop-color="#2158F9"/>
</linearGradient>
<linearGradient id="paint1_linear_469_678" x1="50.6868" y1="70.3284" x2="169.392" y2="70.3284" gradientUnits="userSpaceOnUse">
<stop stop-color="#2158F9"/>
<stop offset="1" stop-color="#33E1E5"/>
</linearGradient>
<linearGradient id="paint2_linear_469_678" x1="16.3173" y1="26.1127" x2="171.914" y2="26.1127" gradientUnits="userSpaceOnUse">
<stop stop-color="#255DF9"/>
<stop offset="1" stop-color="#7C35BA"/>
</linearGradient>
<linearGradient id="paint3_linear_469_678" x1="82.0934" y1="166.643" x2="150.45" y2="84.6721" gradientUnits="userSpaceOnUse">
<stop stop-color="#54A0F7"/>
<stop offset="1" stop-color="#2158F9"/>
</linearGradient>
</defs>
</svg>
