<svg fill="none" height="174" viewBox="0 0 734 174" width="734" xmlns="http://www.w3.org/2000/svg" xmlns:xlink="http://www.w3.org/1999/xlink"><linearGradient id="a" gradientUnits="userSpaceOnUse" x1="13.5748" x2="74.4498" y1="24.4371" y2="157.612"><stop offset="0" stop-color="#57a4f7"/><stop offset="1" stop-color="#2158f9"/></linearGradient><linearGradient id="b" gradientUnits="userSpaceOnUse" x1="50.7239" x2="169.429" y1="70.3552" y2="70.3552"><stop offset="0" stop-color="#2158f9"/><stop offset="1" stop-color="#33e1e5"/></linearGradient><linearGradient id="c" gradientUnits="userSpaceOnUse" x1="16.4189" x2="172.016" y1="26.2103" y2="26.2103"><stop offset="0" stop-color="#255df9"/><stop offset="1" stop-color="#7c35ba"/></linearGradient><linearGradient id="d" gradientUnits="userSpaceOnUse" x1="82.1305" x2="150.487" y1="166.67" y2="84.6989"><stop offset="0" stop-color="#54a0f7"/><stop offset="1" stop-color="#2158f9"/></linearGradient><path d="m97.409 138.67c-8.1 9.2-17.2 17.4-27.2 24.6-17.3-12.2-32.1-27.6-43.6-45.4-6.4-9.9-11.8-20.4999-16-31.7999-2.50002-6.6-4.60002-13.5-6.20002-20.5-2.7-12-4.199996-24.5-4.199996-37.3 0-1.3 0-2.6 0-3.8 5.199996-3.2 10.600016-6 16.200016-8.6 1.5 12.4 4.4 24.4 8.5 35.8 2.3 6.6 5.1 12.9 8.2 19 5.3 10.4 11.7 20.1 19 29.1 12.6 15.5999 27.9 28.7999 45.3 38.8999z" fill="url(#a)"/><path d="m169.409 58.9701c-1.4 7.5-3.3 14.9-5.6 22.1-9.7-1.8-19.8-2.7-30-2.7-.9 0-1.8 0-2.7 0-21.7.4-42.4004 4.9-61.3004 12.9-7.4-8.8-13.8-18.6-19-29 19.5-8.2 41-12.7 63.5004-12.7 7.6 0 15.1.5 22.5 1.5 11.2 1.5 22.2 4.2 32.6 7.9z" fill="url(#b)"/><path d="m172.009 30.0701c0 4.4-.2 8.8-.5 13.2-10.7-4.6-21.9-8-33.6-10.3-10.1-1.9-20.5-2.9-31.1-2.9-22.6002 0-44.2002 4.6-63.8002 12.8-6.2 2.6-12.2 5.6-18 8.9-4.1-11.4-7-23.4-8.5-35.8 6.4-3 13-5.5 19.8-7.69996 15.6-4.9 32.2-7.499998 49.4-7.499998 17.7002 0 34.7002 2.799998 50.6002 7.899998 12.6 4.09996 24.6 9.59996 35.7 16.39996z" fill="url(#c)"/><path d="m163.809 81.0701c-6.6 19.9999-17.1 38.2999-30.5 53.8999-4.3 5.1-9 9.9-13.9 14.4-10.1 9.2-21.4 17.2-33.5 23.7-5.4-3-10.7-6.3-15.7-9.8 10-7.1 19.1-15.4 27.2-24.6 4.1-4.7 8-9.6 11.6-14.7 9.6-13.8 17.1-29.1999 22.1-45.5999h2.7c10.2-.1 20.3.9 30 2.7z" fill="url(#d)"/><g fill="#000"><path d="m216.009 65.7739v-13.0648h87.817v13.0648h-36.77v55.4921h-14.277v-55.4921z"/><path d="m315.005 114.397c-2.155-2.021-3.771-4.445-4.984-7.139-1.212-2.694-1.75-5.657-1.75-8.7547v-23.1665c0-3.0978.538-6.061 1.75-8.6201 1.213-2.6937 2.829-5.1181 4.984-7.2732 2.155-2.155 4.579-3.9059 7.273-4.9834 2.694-1.2122 5.522-1.751 8.62-1.751h42.427c3.098 0 6.061.5388 8.62 1.751 2.694 1.2122 5.118 2.8284 7.273 4.9834 2.155 2.1551 3.906 4.5795 4.984 7.2732 1.212 2.6938 1.751 5.5223 1.751 8.6201v23.1665c0 3.0977-.539 6.0607-1.751 8.7547s-2.829 5.118-4.984 7.139c-1.077.942-2.155 1.885-3.367 2.693s-2.424 1.482-3.771 2.155c-1.347.539-2.694 1.078-4.175 1.347-1.482.27-2.964.539-4.58.539h-42.427c-1.616 0-3.098-.135-4.579-.539-1.482-.269-2.829-.808-4.176-1.347-1.346-.538-2.559-1.347-3.771-2.155-1.212-.673-2.29-1.616-3.367-2.693zm7.543-14.6815c0 1.0775.269 2.1555.673 3.0975.539.943 1.077 1.886 1.886 2.694.808.808 1.616 1.347 2.693 1.886.943.538 2.021.673 3.098.673h42.427c1.078 0 2.155-.269 3.098-.673.943-.539 1.886-1.078 2.694-1.886s1.347-1.616 1.885-2.694c.539-.942.674-2.02.674-3.0975v-25.5909c0-1.2122-.27-2.2897-.674-3.2325-.404-1.0775-1.077-1.8857-1.751-2.6938-.808-.8081-1.616-1.3469-2.693-1.7509-1.078-.4041-2.155-.6735-3.233-.6735h-42.427c-1.212 0-2.289.2694-3.232.6735-1.078.404-1.886 1.0775-2.694 1.7509-.808.8081-1.347 1.6163-1.751 2.6938s-.673 2.155-.673 3.2325z"/><path d="m415.214 52.5746h61.149c2.29 0 4.445.2694 6.33.8081 1.886.5388 3.637 1.3469 5.118 2.2897 1.482.9429 2.829 2.1551 4.041 3.3672 1.078 1.3469 2.02 2.6938 2.829 4.3101.808 1.4816 1.347 3.0978 1.751 4.8488.404 1.7509.538 3.3672.538 5.1182 0 1.7509-.134 3.5019-.538 5.2528-.404 1.751-.943 3.3672-1.751 4.8488-.809 1.4816-1.751 2.9632-2.829 4.31-1.077 1.3469-2.424 2.4244-4.041 3.3673-1.481.9428-3.232 1.7509-5.118 2.2897-1.885.5387-4.04.8081-6.33.8081h-54.684v26.9376h-14.277v-60.7445c0-1.2122.135-2.2897.539-3.2325s.943-1.751 1.616-2.4244c.674-.6734 1.482-1.2122 2.425-1.6163.943-.2693 2.02-.5387 3.232-.5387zm60.88 28.554c1.077 0 2.02-.2694 2.828-.6734.808-.4041 1.482-1.0776 2.02-1.751.539-.6734.943-1.4816 1.213-2.4244.269-.9428.404-1.8856.404-2.8285 0-.9428-.135-1.8856-.404-2.8284-.27-.9428-.674-1.751-1.213-2.4244-.538-.6735-1.212-1.3469-2.02-1.751-.808-.404-1.751-.6734-2.828-.6734h-54.415v15.3545z"/><path d="m506.397 52.5746h14.277v68.5564h-14.277z"/><path d="m528.217 121.266 42.696-64.2467c2.155-3.3673 4.445-4.9835 6.465-4.9835 2.021 0 4.31 1.6162 6.465 4.9835l42.697 64.2467h-17.375l-31.787-48.0841-31.786 48.0841z"/><path d="m635.564 60.5211c0-1.2122.135-2.2898.539-3.2326s.943-1.7509 1.616-2.4244c.674-.6734 1.482-1.2122 2.425-1.6162.943-.4041 2.02-.5388 3.232-.5388h5.792c.539 0 1.078.1347 1.616.2694.539.1347 1.078.4041 1.617.6734.538.2694.942.5388 1.346.9429.404.404.809.8081 1.078 1.2122l29.766 44.986 29.766-44.986c.27-.4041.674-.8082 1.078-1.2122.404-.4041.943-.6735 1.347-.9429.538-.2693 1.077-.5387 1.616-.6734s1.078-.2694 1.616-.2694h5.792c1.212 0 2.29.1347 3.232.5388.943.404 1.751.9428 2.425 1.6162.673.6735 1.212 1.4816 1.616 2.4244s.539 2.0204.539 3.2326v60.7449h-14.277v-47.0067l-28.285 42.5617c-.404.539-.808 1.077-1.212 1.616s-.943 1.078-1.482 1.616c-.538.539-1.212.943-1.75 1.213-.674.269-1.347.538-2.021.538-.673 0-1.347-.134-2.02-.538-.674-.27-1.212-.674-1.751-1.213-.539-.538-1.078-1.077-1.482-1.616s-.808-1.077-1.212-1.616l-28.285-42.5617v47.0067h-14.277z"/></g></svg>