<svg width="200" height="200" viewBox="0 0 200 200" fill="none" xmlns="http://www.w3.org/2000/svg">
<g clip-path="url(#clip0_446_540)">
<path d="M113.069 160.072C103.717 170.743 93.0453 180.216 81.5345 188.609C61.5105 174.46 44.3642 156.595 30.9349 135.971C23.5009 124.46 17.2659 112.11 12.4697 99.0407C9.592 91.3668 7.19392 83.3332 5.27545 75.2996C2.03803 61.3907 0.359375 47.0022 0.359375 32.1341C0.359375 30.6953 0.359375 29.1365 0.359375 27.6977C6.35459 23.9806 12.7095 20.7432 19.0644 17.7456C20.7431 32.1341 24.1004 46.043 28.8966 59.3524C31.6544 66.9063 34.7719 74.3404 38.4889 81.4147C44.604 93.5251 52.0381 104.796 60.4314 115.228C75.1796 133.093 92.9254 148.321 113.069 160.072Z" fill="url(#paint0_linear_446_540)"/>
<path d="M196.643 67.6256C195.084 76.3786 192.926 84.8918 190.168 93.1652C178.897 91.1269 167.266 90.0477 155.276 90.0477C154.197 90.0477 153.118 90.0477 152.039 90.0477C126.859 90.4074 102.878 95.6832 80.9352 105.036C72.302 94.8439 64.868 83.453 58.9927 71.3427C81.6546 61.8702 106.475 56.7144 132.614 56.7144C141.487 56.7144 150.24 57.3139 158.753 58.5129C171.823 60.1916 184.533 63.3091 196.643 67.6256Z" fill="url(#paint1_linear_446_540)"/>
<path d="M199.64 34.0528C199.64 39.2087 199.401 44.3646 199.041 49.4005C186.691 44.1247 173.621 40.048 160.072 37.53C148.321 35.2518 136.211 34.0528 123.981 34.0528C97.7218 34.0528 72.6619 39.3286 49.88 48.9209C42.6858 51.9185 35.7313 55.3958 29.0167 59.2327C24.2205 46.0432 20.8632 32.0144 19.1846 17.6259C26.6186 14.1487 34.2925 11.271 42.2062 8.75301C60.3117 3.11751 79.4964 0 99.4005 0C119.904 0 139.568 3.23741 158.153 9.11272C172.782 13.789 186.691 20.2638 199.52 28.1775C199.64 30.2159 199.64 32.1343 199.64 34.0528Z" fill="url(#paint2_linear_446_540)"/>
<path d="M190.168 93.2855C182.494 116.547 170.384 137.65 154.796 155.875C149.76 161.751 144.364 167.386 138.609 172.542C126.858 183.214 113.789 192.446 99.7601 200C93.4052 196.523 87.41 192.686 81.5347 188.609C93.0455 180.336 103.717 170.744 113.069 160.072C117.866 154.676 122.302 148.921 126.499 143.046C137.65 127.098 146.403 109.233 152.158 90.1679C153.237 90.1679 154.316 90.1679 155.396 90.1679C167.146 90.048 178.777 91.1272 190.168 93.2855Z" fill="url(#paint3_linear_446_540)"/>
</g>
<defs>
<linearGradient id="paint0_linear_446_540" x1="15.8569" y1="27.5782" x2="86.4712" y2="182.06" gradientUnits="userSpaceOnUse">
<stop stop-color="#57A4F7"/>
<stop offset="1" stop-color="#2158F9"/>
</linearGradient>
<linearGradient id="paint1_linear_446_540" x1="58.9501" y1="80.8427" x2="196.648" y2="80.8427" gradientUnits="userSpaceOnUse">
<stop stop-color="#2158F9"/>
<stop offset="1" stop-color="#33E1E5"/>
</linearGradient>
<linearGradient id="paint2_linear_446_540" x1="19.1564" y1="29.6353" x2="199.647" y2="29.6353" gradientUnits="userSpaceOnUse">
<stop stop-color="#255DF9"/>
<stop offset="1" stop-color="#7C35BA"/>
</linearGradient>
<linearGradient id="paint3_linear_446_540" x1="95.3808" y1="192.567" x2="174.674" y2="97.4815" gradientUnits="userSpaceOnUse">
<stop stop-color="#54A0F7"/>
<stop offset="1" stop-color="#2158F9"/>
</linearGradient>
<clipPath id="clip0_446_540">
<rect width="200" height="200" fill="white"/>
</clipPath>
</defs>
</svg>
